<svg width="13" height="10" viewBox="0 0 13 10" fill="none" xmlns="http://www.w3.org/2000/svg">
<path d="M6.39955 3.11368L8.27273 4.75356V4.67053C8.27273 4.25763 8.08596 3.86164 7.75351 3.56967C7.42106 3.27771 6.97016 3.11368 6.5 3.11368H6.39955ZM3.85864 3.52884L4.77455 4.33321C4.745 4.44219 4.72727 4.55117 4.72727 4.67053C4.72727 5.08343 4.91404 5.47942 5.24649 5.77138C5.57894 6.06334 6.02984 6.22737 6.5 6.22737C6.63 6.22737 6.76 6.2118 6.88409 6.18585L7.8 6.99022C7.40409 7.16147 6.96682 7.26526 6.5 7.26526C5.71641 7.26526 4.96491 6.99189 4.41082 6.50528C3.85674 6.01867 3.54545 5.35869 3.54545 4.67053C3.54545 4.26056 3.66364 3.87654 3.85864 3.52884ZM0.590909 0.659063L1.93818 1.84226L2.20409 2.07579C1.22909 2.75042 0.460909 3.63263 0 4.67053C1.02227 6.94871 3.54545 8.56263 6.5 8.56263C7.41591 8.56263 8.29045 8.40695 9.08818 8.12672L9.34227 8.34467L11.0677 9.86L11.8182 9.20094L1.34136 0M6.5 2.07579C7.28359 2.07579 8.03509 2.34916 8.58918 2.83577C9.14326 3.32238 9.45455 3.98236 9.45455 4.67053C9.45455 5.00265 9.37773 5.3244 9.24182 5.61501L10.9732 7.13553C11.8595 6.48684 12.5686 5.63577 13 4.67053C11.9777 2.39235 9.45455 0.778421 6.5 0.778421C5.67273 0.778421 4.88091 0.908158 4.13636 1.14168L5.41864 2.25742C5.75545 2.14325 6.11591 2.07579 6.5 2.07579Z" fill="black"/>
</svg>
