<svg width="25" height="25" viewBox="0 0 25 25" fill="none" xmlns="http://www.w3.org/2000/svg">
<path d="M13.0417 0.200055C12.8907 0.070947 12.6986 0 12.5 0C12.3014 0 12.1093 0.070947 11.9583 0.200055L0 10.4501V22.5001C0 23.1631 0.263392 23.799 0.732233 24.2678C1.20107 24.7367 1.83696 25.0001 2.5 25.0001H9.16667C9.38768 25.0001 9.59964 24.9123 9.75592 24.756C9.9122 24.5997 10 24.3877 10 24.1667V19.1667C10 18.5037 10.2634 17.8678 10.7322 17.399C11.2011 16.9301 11.837 16.6667 12.5 16.6667C13.163 16.6667 13.7989 16.9301 14.2678 17.399C14.7366 17.8678 15 18.5037 15 19.1667V24.1667C15 24.3877 15.0878 24.5997 15.2441 24.756C15.4004 24.9123 15.6123 25.0001 15.8333 25.0001H22.5C23.163 25.0001 23.7989 24.7367 24.2678 24.2678C24.7366 23.799 25 23.1631 25 22.5001V10.4501L13.0417 0.200055Z" fill="#D14081"/>
</svg>
